<mxfile host="app.diagrams.net" modified="2023-08-04T23:15:04.349Z" agent="Mozilla/5.0 (Windows NT 10.0; Win64; x64; rv:109.0) Gecko/20100101 Firefox/116.0" etag="LNFd1W0sAaY-_Q8mha87" version="21.6.5" type="github">
  <diagram name="Página-1" id="_0tqpj0Rn0tvc-bkXkc3">
    <mxGraphModel dx="1050" dy="558" grid="1" gridSize="10" guides="1" tooltips="1" connect="1" arrows="1" fold="1" page="1" pageScale="1" pageWidth="827" pageHeight="1169" math="0" shadow="0">
      <root>
        <mxCell id="0" />
        <mxCell id="1" parent="0" />
        <mxCell id="OWSpl5ZMuwjXY4CJ1PXd-1" value="Tienda Online" style="ellipse;whiteSpace=wrap;html=1;fillColor=#d5e8d4;strokeColor=#82b366;" vertex="1" parent="1">
          <mxGeometry x="110" y="80" width="120" height="80" as="geometry" />
        </mxCell>
        <mxCell id="OWSpl5ZMuwjXY4CJ1PXd-2" value="&lt;div&gt;&lt;b&gt;Big Picture&lt;/b&gt;&lt;/div&gt;&lt;div&gt;&lt;br&gt;&lt;/div&gt;&lt;div&gt;Corresponde a la vista general del producto&amp;nbsp;&lt;/div&gt;&lt;div&gt;relacionado con la tienda online&amp;nbsp; &lt;br&gt;&lt;/div&gt;" style="text;html=1;align=center;verticalAlign=middle;resizable=0;points=[];autosize=1;strokeColor=none;fillColor=none;" vertex="1" parent="1">
          <mxGeometry x="260" y="80" width="250" height="70" as="geometry" />
        </mxCell>
        <mxCell id="OWSpl5ZMuwjXY4CJ1PXd-3" value="Carrito Compras" style="ellipse;whiteSpace=wrap;html=1;" vertex="1" parent="1">
          <mxGeometry x="40" y="590" width="120" height="80" as="geometry" />
        </mxCell>
        <mxCell id="OWSpl5ZMuwjXY4CJ1PXd-4" value="Notificaciones" style="ellipse;whiteSpace=wrap;html=1;" vertex="1" parent="1">
          <mxGeometry x="200" y="240" width="120" height="80" as="geometry" />
        </mxCell>
        <mxCell id="OWSpl5ZMuwjXY4CJ1PXd-5" value="Servicio al cliente" style="ellipse;whiteSpace=wrap;html=1;" vertex="1" parent="1">
          <mxGeometry x="360" y="240" width="120" height="80" as="geometry" />
        </mxCell>
        <mxCell id="OWSpl5ZMuwjXY4CJ1PXd-6" value="Información tienda" style="ellipse;whiteSpace=wrap;html=1;" vertex="1" parent="1">
          <mxGeometry x="40" y="360" width="120" height="80" as="geometry" />
        </mxCell>
        <mxCell id="OWSpl5ZMuwjXY4CJ1PXd-7" value="Puntos distriibución" style="ellipse;whiteSpace=wrap;html=1;" vertex="1" parent="1">
          <mxGeometry x="630" y="250" width="120" height="80" as="geometry" />
        </mxCell>
        <mxCell id="OWSpl5ZMuwjXY4CJ1PXd-8" value="Seguridad" style="ellipse;whiteSpace=wrap;html=1;" vertex="1" parent="1">
          <mxGeometry x="600" y="70" width="120" height="80" as="geometry" />
        </mxCell>
        <mxCell id="OWSpl5ZMuwjXY4CJ1PXd-9" value="Clientes" style="ellipse;whiteSpace=wrap;html=1;" vertex="1" parent="1">
          <mxGeometry x="40" y="470" width="120" height="80" as="geometry" />
        </mxCell>
        <mxCell id="OWSpl5ZMuwjXY4CJ1PXd-10" value="Pagos" style="ellipse;whiteSpace=wrap;html=1;" vertex="1" parent="1">
          <mxGeometry x="50" y="260" width="120" height="80" as="geometry" />
        </mxCell>
        <mxCell id="OWSpl5ZMuwjXY4CJ1PXd-33" style="edgeStyle=orthogonalEdgeStyle;rounded=0;orthogonalLoop=1;jettySize=auto;html=1;exitX=1;exitY=0.5;exitDx=0;exitDy=0;entryX=0;entryY=0.5;entryDx=0;entryDy=0;" edge="1" parent="1" source="OWSpl5ZMuwjXY4CJ1PXd-11" target="OWSpl5ZMuwjXY4CJ1PXd-30">
          <mxGeometry relative="1" as="geometry" />
        </mxCell>
        <mxCell id="OWSpl5ZMuwjXY4CJ1PXd-11" value="Pedidos Clientes" style="ellipse;whiteSpace=wrap;html=1;" vertex="1" parent="1">
          <mxGeometry x="320" y="400" width="120" height="80" as="geometry" />
        </mxCell>
        <mxCell id="OWSpl5ZMuwjXY4CJ1PXd-12" value="Pedidos Productos" style="ellipse;whiteSpace=wrap;html=1;" vertex="1" parent="1">
          <mxGeometry x="540" y="180" width="120" height="80" as="geometry" />
        </mxCell>
        <mxCell id="OWSpl5ZMuwjXY4CJ1PXd-13" value="Productos" style="ellipse;whiteSpace=wrap;html=1;" vertex="1" parent="1">
          <mxGeometry x="320" y="590" width="120" height="80" as="geometry" />
        </mxCell>
        <mxCell id="OWSpl5ZMuwjXY4CJ1PXd-14" value="Inventario" style="ellipse;whiteSpace=wrap;html=1;" vertex="1" parent="1">
          <mxGeometry x="560" y="590" width="120" height="80" as="geometry" />
        </mxCell>
        <mxCell id="OWSpl5ZMuwjXY4CJ1PXd-15" value="Catálogos " style="ellipse;whiteSpace=wrap;html=1;" vertex="1" parent="1">
          <mxGeometry x="150" y="740" width="120" height="80" as="geometry" />
        </mxCell>
        <mxCell id="OWSpl5ZMuwjXY4CJ1PXd-16" value="Ofertas" style="ellipse;whiteSpace=wrap;html=1;" vertex="1" parent="1">
          <mxGeometry x="220" y="890" width="120" height="80" as="geometry" />
        </mxCell>
        <mxCell id="OWSpl5ZMuwjXY4CJ1PXd-17" value="Logística" style="ellipse;whiteSpace=wrap;html=1;" vertex="1" parent="1">
          <mxGeometry x="590" y="700" width="120" height="80" as="geometry" />
        </mxCell>
        <mxCell id="OWSpl5ZMuwjXY4CJ1PXd-19" style="edgeStyle=orthogonalEdgeStyle;rounded=0;orthogonalLoop=1;jettySize=auto;html=1;exitX=1;exitY=0.5;exitDx=0;exitDy=0;entryX=0.267;entryY=0.988;entryDx=0;entryDy=0;entryPerimeter=0;" edge="1" parent="1" source="OWSpl5ZMuwjXY4CJ1PXd-18" target="OWSpl5ZMuwjXY4CJ1PXd-13">
          <mxGeometry relative="1" as="geometry" />
        </mxCell>
        <mxCell id="OWSpl5ZMuwjXY4CJ1PXd-18" value="&lt;div&gt;A&lt;/div&gt;&lt;div&gt;C&lt;/div&gt;&lt;div&gt;L&lt;br&gt;&lt;/div&gt;" style="rounded=0;whiteSpace=wrap;html=1;" vertex="1" parent="1">
          <mxGeometry x="250" y="750" width="40" height="60" as="geometry" />
        </mxCell>
        <mxCell id="OWSpl5ZMuwjXY4CJ1PXd-23" style="edgeStyle=orthogonalEdgeStyle;rounded=0;orthogonalLoop=1;jettySize=auto;html=1;exitX=1;exitY=0.5;exitDx=0;exitDy=0;entryX=0.5;entryY=1;entryDx=0;entryDy=0;" edge="1" parent="1" source="OWSpl5ZMuwjXY4CJ1PXd-21" target="OWSpl5ZMuwjXY4CJ1PXd-13">
          <mxGeometry relative="1" as="geometry" />
        </mxCell>
        <mxCell id="OWSpl5ZMuwjXY4CJ1PXd-21" value="&lt;div&gt;A&lt;/div&gt;&lt;div&gt;C&lt;/div&gt;&lt;div&gt;L&lt;br&gt;&lt;/div&gt;" style="rounded=0;whiteSpace=wrap;html=1;" vertex="1" parent="1">
          <mxGeometry x="320" y="900" width="40" height="60" as="geometry" />
        </mxCell>
        <mxCell id="OWSpl5ZMuwjXY4CJ1PXd-25" style="edgeStyle=orthogonalEdgeStyle;rounded=0;orthogonalLoop=1;jettySize=auto;html=1;exitX=0;exitY=0.5;exitDx=0;exitDy=0;entryX=1;entryY=0.5;entryDx=0;entryDy=0;" edge="1" parent="1" source="OWSpl5ZMuwjXY4CJ1PXd-24" target="OWSpl5ZMuwjXY4CJ1PXd-13">
          <mxGeometry relative="1" as="geometry" />
        </mxCell>
        <mxCell id="OWSpl5ZMuwjXY4CJ1PXd-24" value="&lt;div&gt;A&lt;/div&gt;&lt;div&gt;C&lt;/div&gt;&lt;div&gt;L&lt;br&gt;&lt;/div&gt;" style="rounded=0;whiteSpace=wrap;html=1;" vertex="1" parent="1">
          <mxGeometry x="540" y="600" width="40" height="60" as="geometry" />
        </mxCell>
        <mxCell id="OWSpl5ZMuwjXY4CJ1PXd-27" style="edgeStyle=orthogonalEdgeStyle;rounded=0;orthogonalLoop=1;jettySize=auto;html=1;exitX=1;exitY=0.5;exitDx=0;exitDy=0;entryX=0;entryY=0.5;entryDx=0;entryDy=0;" edge="1" parent="1" source="OWSpl5ZMuwjXY4CJ1PXd-26" target="OWSpl5ZMuwjXY4CJ1PXd-13">
          <mxGeometry relative="1" as="geometry" />
        </mxCell>
        <mxCell id="OWSpl5ZMuwjXY4CJ1PXd-26" value="&lt;div&gt;A&lt;/div&gt;&lt;div&gt;C&lt;/div&gt;&lt;div&gt;L&lt;br&gt;&lt;/div&gt;" style="rounded=0;whiteSpace=wrap;html=1;" vertex="1" parent="1">
          <mxGeometry x="140" y="600" width="40" height="60" as="geometry" />
        </mxCell>
        <mxCell id="OWSpl5ZMuwjXY4CJ1PXd-29" style="edgeStyle=orthogonalEdgeStyle;rounded=0;orthogonalLoop=1;jettySize=auto;html=1;exitX=0.5;exitY=1;exitDx=0;exitDy=0;entryX=0.5;entryY=0;entryDx=0;entryDy=0;" edge="1" parent="1" source="OWSpl5ZMuwjXY4CJ1PXd-28" target="OWSpl5ZMuwjXY4CJ1PXd-13">
          <mxGeometry relative="1" as="geometry" />
        </mxCell>
        <mxCell id="OWSpl5ZMuwjXY4CJ1PXd-28" value="&lt;div&gt;ACL&lt;/div&gt;" style="rounded=0;whiteSpace=wrap;html=1;" vertex="1" parent="1">
          <mxGeometry x="340" y="470" width="80" height="30" as="geometry" />
        </mxCell>
        <mxCell id="OWSpl5ZMuwjXY4CJ1PXd-30" value="Compras" style="ellipse;whiteSpace=wrap;html=1;" vertex="1" parent="1">
          <mxGeometry x="590" y="400" width="120" height="80" as="geometry" />
        </mxCell>
        <mxCell id="OWSpl5ZMuwjXY4CJ1PXd-34" value="Conformista" style="text;html=1;align=center;verticalAlign=middle;resizable=0;points=[];autosize=1;strokeColor=none;fillColor=none;" vertex="1" parent="1">
          <mxGeometry x="470" y="410" width="90" height="30" as="geometry" />
        </mxCell>
      </root>
    </mxGraphModel>
  </diagram>
</mxfile>
